<svg xmlns="http://www.w3.org/2000/svg" viewBox="0 0 400 400" width="400" height="400">
<defs>
<radialGradient id="bg" cx="44%" cy="38%" r="78%">
<stop offset="0%" stop-color="#f7ead9"/><stop offset="100%" stop-color="#eccfad"/>
</radialGradient>
<radialGradient id="vig" cx="50%" cy="50%" r="62%">
<stop offset="68%" stop-color="#3a2415" stop-opacity="0"/><stop offset="100%" stop-color="#3a2415" stop-opacity="0.14"/>
</radialGradient>
</defs>
<rect width="400" height="400" fill="url(#bg)"/>
<g><g transform="rotate(8.58 200 200)"><g transform="translate(200 50.0)"><path d="M0,0 C 24,-16.099999999999998 13.200000000000001,-46 0,-46 C -13.200000000000001,-46 -24,-16.099999999999998 0,0 Z" fill="#7a3218" fill-opacity="0.92" stroke="#7a3218" stroke-width="0"/></g></g><g transform="rotate(34.30 200 200)"><g transform="translate(200 50.0)"><path d="M0,0 C 24,-16.099999999999998 13.200000000000001,-46 0,-46 C -13.200000000000001,-46 -24,-16.099999999999998 0,0 Z" fill="#7a3218" fill-opacity="0.92" stroke="#7a3218" stroke-width="0"/></g></g><g transform="rotate(60.01 200 200)"><g transform="translate(200 50.0)"><path d="M0,0 C 24,-16.099999999999998 13.200000000000001,-46 0,-46 C -13.200000000000001,-46 -24,-16.099999999999998 0,0 Z" fill="#7a3218" fill-opacity="0.92" stroke="#7a3218" stroke-width="0"/></g></g><g transform="rotate(85.73 200 200)"><g transform="translate(200 50.0)"><path d="M0,0 C 24,-16.099999999999998 13.200000000000001,-46 0,-46 C -13.200000000000001,-46 -24,-16.099999999999998 0,0 Z" fill="#7a3218" fill-opacity="0.92" stroke="#7a3218" stroke-width="0"/></g></g><g transform="rotate(111.44 200 200)"><g transform="translate(200 50.0)"><path d="M0,0 C 24,-16.099999999999998 13.200000000000001,-46 0,-46 C -13.200000000000001,-46 -24,-16.099999999999998 0,0 Z" fill="#7a3218" fill-opacity="0.92" stroke="#7a3218" stroke-width="0"/></g></g><g transform="rotate(137.15 200 200)"><g transform="translate(200 50.0)"><path d="M0,0 C 24,-16.099999999999998 13.200000000000001,-46 0,-46 C -13.200000000000001,-46 -24,-16.099999999999998 0,0 Z" fill="#7a3218" fill-opacity="0.92" stroke="#7a3218" stroke-width="0"/></g></g><g transform="rotate(162.87 200 200)"><g transform="translate(200 50.0)"><path d="M0,0 C 24,-16.099999999999998 13.200000000000001,-46 0,-46 C -13.200000000000001,-46 -24,-16.099999999999998 0,0 Z" fill="#7a3218" fill-opacity="0.92" stroke="#7a3218" stroke-width="0"/></g></g><g transform="rotate(188.58 200 200)"><g transform="translate(200 50.0)"><path d="M0,0 C 24,-16.099999999999998 13.200000000000001,-46 0,-46 C -13.200000000000001,-46 -24,-16.099999999999998 0,0 Z" fill="#7a3218" fill-opacity="0.92" stroke="#7a3218" stroke-width="0"/></g></g><g transform="rotate(214.30 200 200)"><g transform="translate(200 50.0)"><path d="M0,0 C 24,-16.099999999999998 13.200000000000001,-46 0,-46 C -13.200000000000001,-46 -24,-16.099999999999998 0,0 Z" fill="#7a3218" fill-opacity="0.92" stroke="#7a3218" stroke-width="0"/></g></g><g transform="rotate(240.01 200 200)"><g transform="translate(200 50.0)"><path d="M0,0 C 24,-16.099999999999998 13.200000000000001,-46 0,-46 C -13.200000000000001,-46 -24,-16.099999999999998 0,0 Z" fill="#7a3218" fill-opacity="0.92" stroke="#7a3218" stroke-width="0"/></g></g><g transform="rotate(265.73 200 200)"><g transform="translate(200 50.0)"><path d="M0,0 C 24,-16.099999999999998 13.200000000000001,-46 0,-46 C -13.200000000000001,-46 -24,-16.099999999999998 0,0 Z" fill="#7a3218" fill-opacity="0.92" stroke="#7a3218" stroke-width="0"/></g></g><g transform="rotate(291.44 200 200)"><g transform="translate(200 50.0)"><path d="M0,0 C 24,-16.099999999999998 13.200000000000001,-46 0,-46 C -13.200000000000001,-46 -24,-16.099999999999998 0,0 Z" fill="#7a3218" fill-opacity="0.92" stroke="#7a3218" stroke-width="0"/></g></g><g transform="rotate(317.15 200 200)"><g transform="translate(200 50.0)"><path d="M0,0 C 24,-16.099999999999998 13.200000000000001,-46 0,-46 C -13.200000000000001,-46 -24,-16.099999999999998 0,0 Z" fill="#7a3218" fill-opacity="0.92" stroke="#7a3218" stroke-width="0"/></g></g><g transform="rotate(342.87 200 200)"><g transform="translate(200 50.0)"><path d="M0,0 C 24,-16.099999999999998 13.200000000000001,-46 0,-46 C -13.200000000000001,-46 -24,-16.099999999999998 0,0 Z" fill="#7a3218" fill-opacity="0.92" stroke="#7a3218" stroke-width="0"/></g></g><circle cx="330.5" cy="219.7" r="2.4" fill="#7a3218"/><circle cx="309.0" cy="274.4" r="2.4" fill="#7a3218"/><circle cx="266.0" cy="314.3" r="2.4" fill="#7a3218"/><circle cx="209.8" cy="331.6" r="2.4" fill="#7a3218"/><circle cx="151.8" cy="322.9" r="2.4" fill="#7a3218"/><circle cx="103.2" cy="289.8" r="2.4" fill="#7a3218"/><circle cx="73.9" cy="238.9" r="2.4" fill="#7a3218"/><circle cx="69.5" cy="180.3" r="2.4" fill="#7a3218"/><circle cx="91.0" cy="125.6" r="2.4" fill="#7a3218"/><circle cx="134.0" cy="85.7" r="2.4" fill="#7a3218"/><circle cx="190.2" cy="68.4" r="2.4" fill="#7a3218"/><circle cx="248.2" cy="77.1" r="2.4" fill="#7a3218"/><circle cx="296.8" cy="110.2" r="2.4" fill="#7a3218"/><circle cx="326.1" cy="161.1" r="2.4" fill="#7a3218"/><circle cx="200" cy="200" r="120" fill="none" stroke="#7a3218" stroke-width="2.4"/><circle cx="200" cy="200" r="108" fill="none" stroke="#7a3218" stroke-width="1.4" stroke-dasharray="3 5"/><g transform="rotate(23.58 200 200)"><g transform="translate(200 104.0)"><path d="M0,0 C 22,-14.7 12.100000000000001,-42 0,-42 C -12.100000000000001,-42 -22,-14.7 0,0 Z" fill="none" fill-opacity="1" stroke="#7a3218" stroke-width="2.2"/></g></g><g transform="rotate(53.58 200 200)"><g transform="translate(200 104.0)"><path d="M0,0 C 22,-14.7 12.100000000000001,-42 0,-42 C -12.100000000000001,-42 -22,-14.7 0,0 Z" fill="none" fill-opacity="1" stroke="#7a3218" stroke-width="2.2"/></g></g><g transform="rotate(83.58 200 200)"><g transform="translate(200 104.0)"><path d="M0,0 C 22,-14.7 12.100000000000001,-42 0,-42 C -12.100000000000001,-42 -22,-14.7 0,0 Z" fill="none" fill-opacity="1" stroke="#7a3218" stroke-width="2.2"/></g></g><g transform="rotate(113.58 200 200)"><g transform="translate(200 104.0)"><path d="M0,0 C 22,-14.7 12.100000000000001,-42 0,-42 C -12.100000000000001,-42 -22,-14.7 0,0 Z" fill="none" fill-opacity="1" stroke="#7a3218" stroke-width="2.2"/></g></g><g transform="rotate(143.58 200 200)"><g transform="translate(200 104.0)"><path d="M0,0 C 22,-14.7 12.100000000000001,-42 0,-42 C -12.100000000000001,-42 -22,-14.7 0,0 Z" fill="none" fill-opacity="1" stroke="#7a3218" stroke-width="2.2"/></g></g><g transform="rotate(173.58 200 200)"><g transform="translate(200 104.0)"><path d="M0,0 C 22,-14.7 12.100000000000001,-42 0,-42 C -12.100000000000001,-42 -22,-14.7 0,0 Z" fill="none" fill-opacity="1" stroke="#7a3218" stroke-width="2.2"/></g></g><g transform="rotate(203.58 200 200)"><g transform="translate(200 104.0)"><path d="M0,0 C 22,-14.7 12.100000000000001,-42 0,-42 C -12.100000000000001,-42 -22,-14.7 0,0 Z" fill="none" fill-opacity="1" stroke="#7a3218" stroke-width="2.2"/></g></g><g transform="rotate(233.58 200 200)"><g transform="translate(200 104.0)"><path d="M0,0 C 22,-14.7 12.100000000000001,-42 0,-42 C -12.100000000000001,-42 -22,-14.7 0,0 Z" fill="none" fill-opacity="1" stroke="#7a3218" stroke-width="2.2"/></g></g><g transform="rotate(263.58 200 200)"><g transform="translate(200 104.0)"><path d="M0,0 C 22,-14.7 12.100000000000001,-42 0,-42 C -12.100000000000001,-42 -22,-14.7 0,0 Z" fill="none" fill-opacity="1" stroke="#7a3218" stroke-width="2.2"/></g></g><g transform="rotate(293.58 200 200)"><g transform="translate(200 104.0)"><path d="M0,0 C 22,-14.7 12.100000000000001,-42 0,-42 C -12.100000000000001,-42 -22,-14.7 0,0 Z" fill="none" fill-opacity="1" stroke="#7a3218" stroke-width="2.2"/></g></g><g transform="rotate(323.58 200 200)"><g transform="translate(200 104.0)"><path d="M0,0 C 22,-14.7 12.100000000000001,-42 0,-42 C -12.100000000000001,-42 -22,-14.7 0,0 Z" fill="none" fill-opacity="1" stroke="#7a3218" stroke-width="2.2"/></g></g><g transform="rotate(353.58 200 200)"><g transform="translate(200 104.0)"><path d="M0,0 C 22,-14.7 12.100000000000001,-42 0,-42 C -12.100000000000001,-42 -22,-14.7 0,0 Z" fill="none" fill-opacity="1" stroke="#7a3218" stroke-width="2.2"/></g></g><circle cx="269.2" cy="210.4" r="3" fill="#7a3218"/><circle cx="254.7" cy="243.7" r="3" fill="#7a3218"/><circle cx="225.6" cy="265.2" r="3" fill="#7a3218"/><circle cx="189.6" cy="269.2" r="3" fill="#7a3218"/><circle cx="156.3" cy="254.7" r="3" fill="#7a3218"/><circle cx="134.8" cy="225.6" r="3" fill="#7a3218"/><circle cx="130.8" cy="189.6" r="3" fill="#7a3218"/><circle cx="145.3" cy="156.3" r="3" fill="#7a3218"/><circle cx="174.4" cy="134.8" r="3" fill="#7a3218"/><circle cx="210.4" cy="130.8" r="3" fill="#7a3218"/><circle cx="243.7" cy="145.3" r="3" fill="#7a3218"/><circle cx="265.2" cy="174.4" r="3" fill="#7a3218"/><circle cx="200" cy="200" r="48" fill="none" stroke="#7a3218" stroke-width="1.6"/><g transform="rotate(8.58 200 200)"><g transform="translate(200 170.0)"><path d="M0,0 C 15,-9.1 8.25,-26 0,-26 C -8.25,-26 -15,-9.1 0,0 Z" fill="#7a3218" fill-opacity="0.9" stroke="#7a3218" stroke-width="0"/></g></g><g transform="rotate(53.58 200 200)"><g transform="translate(200 170.0)"><path d="M0,0 C 15,-9.1 8.25,-26 0,-26 C -8.25,-26 -15,-9.1 0,0 Z" fill="#7a3218" fill-opacity="0.9" stroke="#7a3218" stroke-width="0"/></g></g><g transform="rotate(98.58 200 200)"><g transform="translate(200 170.0)"><path d="M0,0 C 15,-9.1 8.25,-26 0,-26 C -8.25,-26 -15,-9.1 0,0 Z" fill="#7a3218" fill-opacity="0.9" stroke="#7a3218" stroke-width="0"/></g></g><g transform="rotate(143.58 200 200)"><g transform="translate(200 170.0)"><path d="M0,0 C 15,-9.1 8.25,-26 0,-26 C -8.25,-26 -15,-9.1 0,0 Z" fill="#7a3218" fill-opacity="0.9" stroke="#7a3218" stroke-width="0"/></g></g><g transform="rotate(188.58 200 200)"><g transform="translate(200 170.0)"><path d="M0,0 C 15,-9.1 8.25,-26 0,-26 C -8.25,-26 -15,-9.1 0,0 Z" fill="#7a3218" fill-opacity="0.9" stroke="#7a3218" stroke-width="0"/></g></g><g transform="rotate(233.58 200 200)"><g transform="translate(200 170.0)"><path d="M0,0 C 15,-9.1 8.25,-26 0,-26 C -8.25,-26 -15,-9.1 0,0 Z" fill="#7a3218" fill-opacity="0.9" stroke="#7a3218" stroke-width="0"/></g></g><g transform="rotate(278.58 200 200)"><g transform="translate(200 170.0)"><path d="M0,0 C 15,-9.1 8.25,-26 0,-26 C -8.25,-26 -15,-9.1 0,0 Z" fill="#7a3218" fill-opacity="0.9" stroke="#7a3218" stroke-width="0"/></g></g><g transform="rotate(323.58 200 200)"><g transform="translate(200 170.0)"><path d="M0,0 C 15,-9.1 8.25,-26 0,-26 C -8.25,-26 -15,-9.1 0,0 Z" fill="#7a3218" fill-opacity="0.9" stroke="#7a3218" stroke-width="0"/></g></g><circle cx="200" cy="200" r="13" fill="none" stroke="#7a3218" stroke-width="2"/><circle cx="200" cy="200" r="4.5" fill="#7a3218"/><circle cx="217.2" cy="210.2" r="1.8" fill="#7a3218"/><circle cx="205.0" cy="219.4" r="1.8" fill="#7a3218"/><circle cx="189.8" cy="217.2" r="1.8" fill="#7a3218"/><circle cx="180.6" cy="205.0" r="1.8" fill="#7a3218"/><circle cx="182.8" cy="189.8" r="1.8" fill="#7a3218"/><circle cx="195.0" cy="180.6" r="1.8" fill="#7a3218"/><circle cx="210.2" cy="182.8" r="1.8" fill="#7a3218"/><circle cx="219.4" cy="195.0" r="1.8" fill="#7a3218"/><g transform="translate(56 56) rotate(135) scale(0.9)"><path d="M0,0 C 17,-11.899999999999999 9.350000000000001,-34 0,-34 C -9.350000000000001,-34 -17,-11.899999999999999 0,0 Z" fill="none" fill-opacity="1" stroke="#7a3218" stroke-width="2"/><path d="M0,0 C 9,-6.3 4.95,-18 0,-18 C -4.95,-18 -9,-6.3 0,0 Z" fill="#7a3218" fill-opacity="0.85" stroke="#7a3218" stroke-width="0"/><circle cx="0" cy="4" r="2.4" fill="#7a3218"/></g><g transform="translate(344 56) rotate(225) scale(0.9)"><path d="M0,0 C 17,-11.899999999999999 9.350000000000001,-34 0,-34 C -9.350000000000001,-34 -17,-11.899999999999999 0,0 Z" fill="none" fill-opacity="1" stroke="#7a3218" stroke-width="2"/><path d="M0,0 C 9,-6.3 4.95,-18 0,-18 C -4.95,-18 -9,-6.3 0,0 Z" fill="#7a3218" fill-opacity="0.85" stroke="#7a3218" stroke-width="0"/><circle cx="0" cy="4" r="2.4" fill="#7a3218"/></g><g transform="translate(56 344) rotate(45) scale(0.9)"><path d="M0,0 C 17,-11.899999999999999 9.350000000000001,-34 0,-34 C -9.350000000000001,-34 -17,-11.899999999999999 0,0 Z" fill="none" fill-opacity="1" stroke="#7a3218" stroke-width="2"/><path d="M0,0 C 9,-6.3 4.95,-18 0,-18 C -4.95,-18 -9,-6.3 0,0 Z" fill="#7a3218" fill-opacity="0.85" stroke="#7a3218" stroke-width="0"/><circle cx="0" cy="4" r="2.4" fill="#7a3218"/></g><g transform="translate(344 344) rotate(315) scale(0.9)"><path d="M0,0 C 17,-11.899999999999999 9.350000000000001,-34 0,-34 C -9.350000000000001,-34 -17,-11.899999999999999 0,0 Z" fill="none" fill-opacity="1" stroke="#7a3218" stroke-width="2"/><path d="M0,0 C 9,-6.3 4.95,-18 0,-18 C -4.95,-18 -9,-6.3 0,0 Z" fill="#7a3218" fill-opacity="0.85" stroke="#7a3218" stroke-width="0"/><circle cx="0" cy="4" r="2.4" fill="#7a3218"/></g></g>
<rect width="400" height="400" fill="url(#vig)"/>
</svg>